<?xml version="1.0" standalone="no"?>
<!DOCTYPE svg PUBLIC "-//W3C//DTD SVG 20010904//EN"
 "http://www.w3.org/TR/2001/REC-SVG-20010904/DTD/svg10.dtd">
<svg version="1.0" xmlns="http://www.w3.org/2000/svg"
 width="260.000000pt" height="260.000000pt" viewBox="0 0 260.000000 260.000000"
 preserveAspectRatio="xMidYMid meet">
<metadata>
Created by potrace 1.11, written by Peter Selinger 2001-2013
</metadata>
<g transform="translate(0.000000,260.000000) scale(0.100000,-0.100000)"
fill="#000000" stroke="none">
<path d="M0 1300 l0 -1300 1300 0 1300 0 0 1300 0 1300 -1300 0 -1300 0 0
-1300z m1573 836 c207 -53 277 -125 217 -223 -39 -64 -113 -77 -267 -48 -155
30 -271 17 -389 -43 -149 -76 -167 -187 -35 -221 20 -6 115 -15 211 -21 194
-12 276 -28 365 -72 172 -86 252 -225 243 -421 -4 -75 -10 -103 -33 -152 -73
-153 -280 -273 -549 -320 -131 -22 -353 -20 -450 5 -132 34 -232 98 -291 188
-38 58 -46 162 -16 209 30 48 66 67 127 67 63 0 98 -21 131 -79 30 -53 65 -89
110 -111 59 -29 281 -27 379 4 106 33 207 87 248 132 33 36 36 46 36 98 0 95
-48 149 -154 172 -28 6 -125 15 -216 20 -185 10 -262 26 -367 76 -152 72 -205
191 -152 346 41 121 130 223 272 312 180 112 361 137 580 82z"/>
</g>
</svg>
